<svg width="20" height="21" viewBox="0 0 20 21" fill="none" xmlns="http://www.w3.org/2000/svg">
<path d="M11 9.5H15V11.5H11V15.5H9V11.5H5V9.5H9V5.5H11V9.5ZM10 20.5C7.34784 20.5 4.8043 19.4464 2.92893 17.5711C1.05357 15.6957 0 13.1522 0 10.5C0 7.84784 1.05357 5.3043 2.92893 3.42893C4.8043 1.55357 7.34784 0.5 10 0.5C12.6522 0.5 15.1957 1.55357 17.0711 3.42893C18.9464 5.3043 20 7.84784 20 10.5C20 13.1522 18.9464 15.6957 17.0711 17.5711C15.1957 19.4464 12.6522 20.5 10 20.5ZM10 18.5C12.1217 18.5 14.1566 17.6571 15.6569 16.1569C17.1571 14.6566 18 12.6217 18 10.5C18 8.37827 17.1571 6.34344 15.6569 4.84315C14.1566 3.34285 12.1217 2.5 10 2.5C7.87827 2.5 5.84344 3.34285 4.34315 4.84315C2.84285 6.34344 2 8.37827 2 10.5C2 12.6217 2.84285 14.6566 4.34315 16.1569C5.84344 17.6571 7.87827 18.5 10 18.5Z" fill="white"/>
</svg>
