<svg width="20" height="19" viewBox="0 0 20 19" class="icone-limpar" xmlns="http://www.w3.org/2000/svg">
<path d="M12.3424 12.3138L8.09944 8.07079L2.44244 13.7278L4.56444 15.8488C5.12703 16.4112 5.88995 16.7271 6.68544 16.7271C7.48094 16.7271 8.24386 16.4112 8.80644 15.8488L12.3424 12.3138ZM10.8984 16.5858H13.6144C13.8797 16.5858 14.134 16.6911 14.3216 16.8787C14.5091 17.0662 14.6144 17.3206 14.6144 17.5858C14.6144 17.851 14.5091 18.1054 14.3216 18.2929C14.134 18.4804 13.8797 18.5858 13.6144 18.5858H2.61444C2.36091 18.5856 2.11693 18.4891 1.93185 18.3158C1.74678 18.1425 1.63443 17.9054 1.61753 17.6524C1.60063 17.3995 1.68045 17.1495 1.84083 16.9532C2.00122 16.7568 2.2302 16.6287 2.48144 16.5948L1.02844 15.1418C0.653502 14.7667 0.442871 14.2581 0.442871 13.7278C0.442871 13.1975 0.653502 12.6888 1.02844 12.3138L12.3424 0.999788C12.7175 0.624846 13.2261 0.414215 13.7564 0.414215C14.2868 0.414215 14.7954 0.624846 15.1704 0.999788L19.4144 5.24279C19.7894 5.61784 20 6.12646 20 6.65679C20 7.18712 19.7894 7.69573 19.4144 8.07079L10.8984 16.5858Z"/>
</svg>
