<svg width="18" height="21" viewBox="0 0 18 21" fill="none" xmlns="http://www.w3.org/2000/svg">
<path d="M15.33 5.04H13.39V3.19C13.391 2.65983 13.2352 2.14121 12.9424 1.69926C12.6495 1.25731 12.2326 0.911759 11.744 0.706C11.4193 0.571335 11.0715 0.501359 10.72 0.5H2.67002C2.31808 0.501311 1.96984 0.57193 1.64519 0.707825C1.32053 0.84372 1.02583 1.04223 0.777896 1.29202C0.529963 1.54181 0.333658 1.83799 0.20019 2.16364C0.0667212 2.4893 -0.00129694 2.83806 1.87278e-05 3.19V13.28C-0.00129694 13.6319 0.0667212 13.9807 0.20019 14.3064C0.333658 14.632 0.529963 14.9282 0.777896 15.178C1.02583 15.4278 1.32053 15.6263 1.64519 15.7622C1.96984 15.8981 2.31808 15.9687 2.67002 15.97H4.61002V17.82C4.61001 18.5291 4.891 19.2092 5.39143 19.7115C5.89187 20.2138 6.57097 20.4974 7.28002 20.5H15.28C15.9891 20.4974 16.6682 20.2138 17.1686 19.7115C17.669 19.2092 17.95 18.5291 17.95 17.82V7.73C17.9503 7.02853 17.6765 6.35472 17.187 5.85221C16.6976 5.3497 16.0312 5.05825 15.33 5.04ZM4.61002 7.73V14.47H2.67002C2.51506 14.4687 2.36187 14.4369 2.21921 14.3764C2.07654 14.3159 1.94719 14.2278 1.83855 14.1173C1.7299 14.0068 1.64409 13.876 1.586 13.7323C1.52792 13.5887 1.4987 13.435 1.50002 13.28V3.19C1.4987 3.03504 1.52792 2.88133 1.586 2.73767C1.64409 2.594 1.7299 2.46318 1.83855 2.35267C1.94719 2.24217 2.07654 2.15415 2.21921 2.09364C2.36187 2.03313 2.51506 2.00131 2.67002 2H10.72C10.875 2.00131 11.0282 2.03313 11.1708 2.09364C11.3135 2.15415 11.4428 2.24217 11.5515 2.35267C11.6601 2.46318 11.7459 2.594 11.804 2.73767C11.8621 2.88133 11.8913 3.03504 11.89 3.19V5.04H7.28002C6.57006 5.04528 5.89097 5.33102 5.39082 5.83492C4.89066 6.33882 4.61 7.02002 4.61002 7.73Z" fill="white"/>
</svg>
