<svg width="268" height="44" viewBox="0 0 268 44" fill="none" xmlns="http://www.w3.org/2000/svg">
<path d="M1.728 33V11.24H11.584C14.912 11.24 16.96 13.192 16.96 16.392V19.4C16.96 22.568 14.88 24.552 11.584 24.552H5.376V33H1.728ZM5.376 21.544H10.656C12.416 21.544 13.344 20.616 13.344 18.952V16.872C13.344 15.208 12.416 14.28 10.656 14.28H5.376V21.544ZM23.196 33.096C20.316 33.096 18.716 31.624 18.716 28.904V27.208C18.716 24.488 20.316 23.016 23.196 23.016H25.308C26.78 23.016 27.868 23.592 28.572 24.52V22.344C28.572 20.904 27.836 20.168 26.428 20.168H24.508C23.292 20.168 22.62 20.744 22.62 21.832H19.42C19.42 18.952 21.116 17.384 24.22 17.384H27.196C30.332 17.384 32.092 19.208 32.092 22.44V33H28.828V31.208C28.156 32.392 26.94 33.096 25.308 33.096H23.196ZM22.172 28.776C22.172 30.024 22.812 30.664 24.188 30.664H26.492C27.868 30.664 28.572 29.928 28.572 28.52V27.528C28.572 26.152 27.868 25.416 26.492 25.416H24.188C22.812 25.416 22.172 26.056 22.172 27.368V28.776ZM40.0243 33.064C37.0163 33.064 35.0323 31.08 35.0323 27.976V22.472C35.0323 19.368 37.0163 17.384 40.0243 17.384H41.9123C43.8963 17.384 45.3043 18.024 46.1043 19.272V10.6H49.6243V33H46.3603V30.76C45.6243 32.296 44.1203 33.064 41.9123 33.064H40.0243ZM38.5523 27.688C38.5523 29.256 39.5443 30.088 41.3043 30.088H43.2563C45.1443 30.088 46.1043 29.128 46.1043 27.208V23.272C46.1043 21.352 45.1443 20.36 43.2563 20.36H41.3043C39.5443 20.36 38.5523 21.224 38.5523 22.792V27.688ZM53.0078 33V17.448H56.2718V20.136C56.9758 18.312 58.4158 17.32 60.6238 17.224V20.68C57.8398 20.584 56.5278 21.992 56.5278 25V33H53.0078ZM68.0088 33.064C64.5848 33.064 62.3448 31.048 62.3448 27.912V22.536C62.3448 19.4 64.5848 17.384 68.0088 17.384H71.0808C74.5368 17.384 76.7448 19.4 76.7448 22.536V27.912C76.7448 31.048 74.5368 33.064 71.0808 33.064H68.0088ZM65.8328 27.624C65.8328 29.224 66.7928 30.088 68.5848 30.088H70.5048C72.2968 30.088 73.2568 29.224 73.2568 27.624V22.856C73.2568 21.224 72.2968 20.36 70.5048 20.36H68.5528C66.7928 20.36 65.8328 21.224 65.8328 22.856V27.624ZM79.8515 33V17.448H83.1155V19.624C83.7555 18.216 84.9715 17.384 86.7315 17.384H88.2355C91.0515 17.384 92.8755 19.432 92.8755 22.664V33H89.3555V23.048C89.3555 21.224 88.3635 20.36 86.6355 20.36H86.0915C84.3315 20.36 83.3715 21.224 83.3715 22.92V33H79.8515ZM96.071 33V17.448H99.559V33H96.071ZM95.623 13.16C95.623 11.944 96.551 11.08 97.799 11.08C99.047 11.08 99.975 11.944 99.975 13.16C99.975 14.376 99.047 15.272 97.799 15.272C96.551 15.272 95.623 14.376 95.623 13.16ZM102.464 33V30.44L110.016 20.392H102.752V17.448H113.984V20.008L106.496 30.056H114.176V33H102.464ZM120.977 33.096C118.097 33.096 116.497 31.624 116.497 28.904V27.208C116.497 24.488 118.097 23.016 120.977 23.016H123.089C124.561 23.016 125.649 23.592 126.353 24.52V22.344C126.353 20.904 125.617 20.168 124.209 20.168H122.289C121.073 20.168 120.401 20.744 120.401 21.832H117.201C117.201 18.952 118.897 17.384 122.001 17.384H124.977C128.113 17.384 129.873 19.208 129.873 22.44V33H126.609V31.208C125.937 32.392 124.721 33.096 123.089 33.096H120.977ZM119.953 28.776C119.953 30.024 120.593 30.664 121.969 30.664H124.273C125.649 30.664 126.353 29.928 126.353 28.52V27.528C126.353 26.152 125.649 25.416 124.273 25.416H121.969C120.593 25.416 119.953 26.056 119.953 27.368V28.776ZM137.806 33.064C134.798 33.064 132.814 31.08 132.814 27.976V22.472C132.814 19.368 134.798 17.384 137.806 17.384H139.694C141.678 17.384 143.086 18.024 143.886 19.272V10.6H147.406V33H144.142V30.76C143.406 32.296 141.902 33.064 139.694 33.064H137.806ZM136.334 27.688C136.334 29.256 137.326 30.088 139.086 30.088H141.038C142.926 30.088 143.886 29.128 143.886 27.208V23.272C143.886 21.352 142.926 20.36 141.038 20.36H139.086C137.326 20.36 136.334 21.224 136.334 22.792V27.688ZM156.165 33.064C152.741 33.064 150.501 31.048 150.501 27.912V22.536C150.501 19.4 152.741 17.384 156.165 17.384H159.237C162.693 17.384 164.901 19.4 164.901 22.536V27.912C164.901 31.048 162.693 33.064 159.237 33.064H156.165ZM153.989 27.624C153.989 29.224 154.949 30.088 156.741 30.088H158.661C160.453 30.088 161.413 29.224 161.413 27.624V22.856C161.413 21.224 160.453 20.36 158.661 20.36H156.709C154.949 20.36 153.989 21.224 153.989 22.856V27.624ZM168.008 33V17.448H171.272V20.136C171.976 18.312 173.416 17.32 175.624 17.224V20.68C172.84 20.584 171.528 21.992 171.528 25V33H168.008Z" fill="white"/>
<path d="M198.031 29.268C196.323 29.268 195.119 28.036 195.119 26.44C195.119 24.788 196.323 23.64 198.031 23.64C199.683 23.64 200.887 24.788 200.887 26.44C200.887 28.036 199.683 29.268 198.031 29.268ZM225.832 34.056C222.388 34.056 220.316 31.984 220.316 28.568V20.392C220.316 16.976 222.388 14.904 225.832 14.904H229.052C232.496 14.904 234.54 16.976 234.54 20.392V22.044H231.348V20.392C231.348 18.572 230.368 17.592 228.576 17.592H226.28C224.516 17.592 223.536 18.572 223.536 20.392V28.596C223.536 30.388 224.516 31.368 226.28 31.368H228.576C230.368 31.368 231.348 30.388 231.348 28.596V26.496H234.54V28.568C234.54 31.984 232.496 34.056 229.052 34.056H225.832ZM237.328 34V14.96H245.952C248.864 14.96 250.656 16.668 250.656 19.468V22.1C250.656 24.872 248.836 26.608 245.952 26.608H240.52V34H237.328ZM240.52 23.976H245.14C246.68 23.976 247.492 23.164 247.492 21.708V19.888C247.492 18.432 246.68 17.62 245.14 17.62H240.52V23.976ZM253.16 34V14.96H265.816V17.648H256.352V22.968H265.816V25.6H256.352V31.312H265.816V34H253.16Z" fill="#91B2E4"/>
</svg>
