<svg width="24" height="25" viewBox="0 0 24 25" fill="none" xmlns="http://www.w3.org/2000/svg">
<path d="M23.5457 11.4305L13.0665 0.952798C12.923 0.809248 12.7527 0.695374 12.5652 0.617681C12.3777 0.539989 12.1767 0.5 11.9737 0.5C11.7708 0.5 11.5698 0.539989 11.3823 0.617681C11.1948 0.695374 11.0245 0.809248 10.881 0.952798L8.70594 3.12784L11.466 5.88788C11.7915 5.77675 12.1417 5.75936 12.4766 5.83771C12.8115 5.91606 13.1177 6.08698 13.3601 6.33098C13.6026 6.57498 13.7715 6.88222 13.8477 7.21764C13.9239 7.55305 13.9043 7.90314 13.791 8.22793L16.4506 10.889C16.8441 10.7504 17.273 10.75 17.6667 10.8878C18.0605 11.0256 18.3956 11.2933 18.6168 11.6469C18.8381 12.0006 18.9323 12.419 18.884 12.8334C18.8357 13.2477 18.6478 13.6333 18.3511 13.9265C18.0508 14.2287 17.6549 14.4172 17.231 14.4599C16.8071 14.5026 16.3815 14.3968 16.027 14.1605C15.6725 13.9243 15.4109 13.5723 15.2871 13.1646C15.1633 12.757 15.1848 12.319 15.3481 11.9255L12.8685 9.44445V15.9741C13.2454 16.1606 13.547 16.4707 13.723 16.8527C13.8989 17.2346 13.9387 17.6653 13.8356 18.0731C13.7325 18.4808 13.4928 18.8408 13.1564 19.0932C12.82 19.3456 12.4073 19.4751 11.987 19.4601C11.5668 19.4451 11.1643 19.2865 10.8468 19.0107C10.5293 18.735 10.3159 18.3587 10.2421 17.9447C10.1684 17.5307 10.2388 17.1039 10.4416 16.7355C10.6443 16.3671 10.9672 16.0793 11.3565 15.9201V9.33045C11.1319 9.23843 10.9278 9.10287 10.7558 8.93158C10.5839 8.7603 10.4476 8.55667 10.3547 8.33245C10.2618 8.10823 10.2143 7.86784 10.2148 7.62515C10.2152 7.38246 10.2637 7.14226 10.3575 6.9184L7.63792 4.19735L0.452798 11.3825C0.309248 11.526 0.195374 11.6963 0.117681 11.8838C0.0399886 12.0713 0 12.2723 0 12.4753C0 12.6782 0.0399886 12.8792 0.117681 13.0667C0.195374 13.2542 0.309248 13.4245 0.452798 13.568L10.932 24.0472C11.0755 24.1908 11.2458 24.3046 11.4333 24.3823C11.6208 24.46 11.8218 24.5 12.0248 24.5C12.2277 24.5 12.4287 24.46 12.6162 24.3823C12.8037 24.3046 12.974 24.1908 13.1175 24.0472L23.5472 13.6175C23.6908 13.474 23.8046 13.3037 23.8823 13.1162C23.96 12.9287 24 12.7277 24 12.5248C24 12.3218 23.96 12.1208 23.8823 11.9333C23.8046 11.7458 23.6908 11.5755 23.5472 11.432" fill="#0A2854"/>
</svg>
