<svg width="217" height="36" viewBox="0 0 217 36" fill="none" xmlns="http://www.w3.org/2000/svg">
<line x1="2" y1="2" x2="2" y2="32.0115" stroke="#0A2854" stroke-width="4" stroke-linecap="round"/>
<path d="M21.6865 20.3569H15.7983V17.9805H21.6865C22.8268 17.9805 23.7502 17.7988 24.4565 17.4355C25.1629 17.0723 25.6776 16.5677 26.0005 15.9219C26.3335 15.276 26.5 14.5394 26.5 13.7119C26.5 12.9551 26.3335 12.2437 26.0005 11.5776C25.6776 10.9116 25.1629 10.3768 24.4565 9.97314C23.7502 9.55941 22.8268 9.35254 21.6865 9.35254H16.4795V29H13.5581V6.96094H21.6865C23.3516 6.96094 24.7593 7.24854 25.9097 7.82373C27.0601 8.39893 27.9329 9.19613 28.5283 10.2153C29.1237 11.2244 29.4214 12.3799 29.4214 13.6816C29.4214 15.0944 29.1237 16.3003 28.5283 17.2993C27.9329 18.2983 27.0601 19.0602 25.9097 19.585C24.7593 20.0996 23.3516 20.3569 21.6865 20.3569ZM42.1665 26.1997V17.7686C42.1665 17.1227 42.0353 16.5627 41.7729 16.0884C41.5207 15.604 41.1372 15.2306 40.6226 14.9683C40.1079 14.7059 39.4722 14.5747 38.7153 14.5747C38.009 14.5747 37.3883 14.6958 36.8535 14.938C36.3288 15.1802 35.915 15.498 35.6123 15.8916C35.3197 16.2852 35.1733 16.709 35.1733 17.1631H32.373C32.373 16.5778 32.5244 15.9976 32.8271 15.4224C33.1299 14.8472 33.5638 14.3275 34.1289 13.8633C34.7041 13.389 35.3903 13.0156 36.1875 12.7432C36.9948 12.4606 37.8929 12.3193 38.8818 12.3193C40.0726 12.3193 41.1221 12.5212 42.0303 12.9248C42.9486 13.3285 43.665 13.939 44.1797 14.7563C44.7044 15.5636 44.9668 16.5778 44.9668 17.7988V25.4277C44.9668 25.9727 45.0122 26.5529 45.103 27.1685C45.2039 27.784 45.3503 28.3138 45.542 28.7578V29H42.6206C42.4793 28.6771 42.3683 28.2482 42.2876 27.7134C42.2069 27.1685 42.1665 26.6639 42.1665 26.1997ZM42.6509 19.0703L42.6812 21.0381H39.8506C39.0534 21.0381 38.342 21.1037 37.7163 21.2349C37.0907 21.356 36.5659 21.5426 36.1421 21.7949C35.7183 22.0472 35.3953 22.3651 35.1733 22.7485C34.9513 23.1219 34.8403 23.5609 34.8403 24.0654C34.8403 24.5801 34.9564 25.0493 35.1885 25.4731C35.4206 25.897 35.7687 26.235 36.2329 26.4873C36.7072 26.7295 37.2874 26.8506 37.9736 26.8506C38.8314 26.8506 39.5882 26.6689 40.2441 26.3057C40.9001 25.9424 41.4198 25.4984 41.8032 24.9736C42.1968 24.4489 42.4087 23.9393 42.439 23.4448L43.6348 24.792C43.5641 25.2158 43.3724 25.6851 43.0596 26.1997C42.7467 26.7144 42.328 27.2088 41.8032 27.6831C41.2886 28.1473 40.673 28.5358 39.9565 28.8486C39.2502 29.1514 38.453 29.3027 37.5649 29.3027C36.4549 29.3027 35.4811 29.0858 34.6436 28.6519C33.8161 28.2179 33.1702 27.6377 32.7061 26.9111C32.252 26.1745 32.0249 25.3521 32.0249 24.4438C32.0249 23.5659 32.1965 22.7939 32.5396 22.1279C32.8826 21.4518 33.3771 20.8918 34.0229 20.4478C34.6688 19.9937 35.4458 19.6506 36.354 19.4185C37.2622 19.1864 38.2764 19.0703 39.3965 19.0703H42.6509ZM59.6948 25.8213V5.75H62.5103V29H59.937L59.6948 25.8213ZM48.6753 20.9927V20.6748C48.6753 19.4235 48.8267 18.2882 49.1294 17.269C49.4422 16.2397 49.8812 15.3568 50.4463 14.6201C51.0215 13.8835 51.7026 13.3184 52.4897 12.9248C53.2869 12.5212 54.175 12.3193 55.1538 12.3193C56.1831 12.3193 57.0812 12.501 57.8481 12.8643C58.6252 13.2174 59.2811 13.7371 59.8159 14.4233C60.3608 15.0994 60.7897 15.9168 61.1025 16.8755C61.4154 17.8341 61.6323 18.9189 61.7534 20.1299V21.5225C61.6424 22.7233 61.4255 23.8031 61.1025 24.7617C60.7897 25.7204 60.3608 26.5378 59.8159 27.2139C59.2811 27.89 58.6252 28.4097 57.8481 28.7729C57.0711 29.1261 56.1629 29.3027 55.1235 29.3027C54.1649 29.3027 53.2869 29.0959 52.4897 28.6821C51.7026 28.2684 51.0215 27.6882 50.4463 26.9414C49.8812 26.1947 49.4422 25.3167 49.1294 24.3076C48.8267 23.2884 48.6753 22.1834 48.6753 20.9927ZM51.4907 20.6748V20.9927C51.4907 21.8101 51.5715 22.577 51.7329 23.2935C51.9045 24.0099 52.1668 24.6406 52.52 25.1855C52.8732 25.7305 53.3223 26.1593 53.8672 26.4722C54.4121 26.7749 55.063 26.9263 55.8198 26.9263C56.7482 26.9263 57.5101 26.7295 58.1055 26.3359C58.7109 25.9424 59.1953 25.4227 59.5586 24.7769C59.9219 24.131 60.2044 23.4297 60.4062 22.6729V19.0249C60.2852 18.4699 60.1086 17.9351 59.8765 17.4204C59.6545 16.8957 59.3618 16.4315 58.9985 16.0278C58.6453 15.6141 58.2064 15.2861 57.6816 15.0439C57.167 14.8018 56.5565 14.6807 55.8501 14.6807C55.0832 14.6807 54.4222 14.8421 53.8672 15.165C53.3223 15.4779 52.8732 15.9118 52.52 16.4668C52.1668 17.0117 51.9045 17.6475 51.7329 18.374C51.5715 19.0905 51.4907 19.8574 51.4907 20.6748ZM69.6699 15.1953V29H66.8696V12.6221H69.5942L69.6699 15.1953ZM74.7861 12.5312L74.771 15.1348C74.5389 15.0843 74.3169 15.054 74.105 15.0439C73.9032 15.0238 73.6711 15.0137 73.4087 15.0137C72.7629 15.0137 72.1927 15.1146 71.6982 15.3164C71.2038 15.5182 70.785 15.8008 70.4419 16.1641C70.0988 16.5273 69.8263 16.9613 69.6245 17.4658C69.4328 17.9603 69.3066 18.5052 69.2461 19.1006L68.459 19.5547C68.459 18.5658 68.5549 17.6374 68.7466 16.7695C68.9484 15.9017 69.2562 15.1348 69.6699 14.4688C70.0837 13.7926 70.6084 13.2679 71.2441 12.8945C71.89 12.5111 72.6569 12.3193 73.5449 12.3193C73.7467 12.3193 73.9788 12.3446 74.2412 12.395C74.5036 12.4354 74.6852 12.4808 74.7861 12.5312ZM86.4263 26.1997V17.7686C86.4263 17.1227 86.2951 16.5627 86.0327 16.0884C85.7804 15.604 85.397 15.2306 84.8823 14.9683C84.3677 14.7059 83.7319 14.5747 82.9751 14.5747C82.2687 14.5747 81.6481 14.6958 81.1133 14.938C80.5885 15.1802 80.1748 15.498 79.8721 15.8916C79.5794 16.2852 79.4331 16.709 79.4331 17.1631H76.6328C76.6328 16.5778 76.7842 15.9976 77.0869 15.4224C77.3896 14.8472 77.8236 14.3275 78.3887 13.8633C78.9639 13.389 79.6501 13.0156 80.4473 12.7432C81.2546 12.4606 82.1527 12.3193 83.1416 12.3193C84.3324 12.3193 85.3818 12.5212 86.29 12.9248C87.2083 13.3285 87.9248 13.939 88.4395 14.7563C88.9642 15.5636 89.2266 16.5778 89.2266 17.7988V25.4277C89.2266 25.9727 89.272 26.5529 89.3628 27.1685C89.4637 27.784 89.61 28.3138 89.8018 28.7578V29H86.8804C86.7391 28.6771 86.6281 28.2482 86.5474 27.7134C86.4666 27.1685 86.4263 26.6639 86.4263 26.1997ZM86.9106 19.0703L86.9409 21.0381H84.1104C83.3132 21.0381 82.6017 21.1037 81.9761 21.2349C81.3504 21.356 80.8257 21.5426 80.4019 21.7949C79.978 22.0472 79.6551 22.3651 79.4331 22.7485C79.2111 23.1219 79.1001 23.5609 79.1001 24.0654C79.1001 24.5801 79.2161 25.0493 79.4482 25.4731C79.6803 25.897 80.0285 26.235 80.4927 26.4873C80.967 26.7295 81.5472 26.8506 82.2334 26.8506C83.0911 26.8506 83.848 26.6689 84.5039 26.3057C85.1598 25.9424 85.6795 25.4984 86.063 24.9736C86.4565 24.4489 86.6685 23.9393 86.6987 23.4448L87.8945 24.792C87.8239 25.2158 87.6322 25.6851 87.3193 26.1997C87.0065 26.7144 86.5877 27.2088 86.063 27.6831C85.5483 28.1473 84.9328 28.5358 84.2163 28.8486C83.5099 29.1514 82.7127 29.3027 81.8247 29.3027C80.7147 29.3027 79.7409 29.0858 78.9033 28.6519C78.0758 28.2179 77.43 27.6377 76.9658 26.9111C76.5117 26.1745 76.2847 25.3521 76.2847 24.4438C76.2847 23.5659 76.4562 22.7939 76.7993 22.1279C77.1424 21.4518 77.6369 20.8918 78.2827 20.4478C78.9285 19.9937 79.7056 19.6506 80.6138 19.4185C81.522 19.1864 82.5361 19.0703 83.6562 19.0703H86.9106ZM86.9258 6.05273L88.8179 6.21924C88.8179 6.95589 88.6715 7.60173 88.3789 8.15674C88.0863 8.71175 87.6927 9.14062 87.1982 9.44336C86.7139 9.74609 86.1639 9.89746 85.5483 9.89746C85.0337 9.89746 84.6099 9.82682 84.2769 9.68555C83.9438 9.53418 83.6462 9.36768 83.3838 9.18604C83.1214 8.9943 82.8439 8.8278 82.5513 8.68652C82.2687 8.53516 81.9155 8.45947 81.4917 8.45947C81.0679 8.45947 80.7096 8.62093 80.417 8.94385C80.1344 9.26676 79.9932 9.66536 79.9932 10.1396L78.1011 10.0488C78.1011 9.31217 78.2424 8.66634 78.5249 8.11133C78.8175 7.54622 79.2111 7.10726 79.7056 6.79443C80.2 6.47152 80.75 6.31006 81.3555 6.31006C81.7894 6.31006 82.1678 6.38574 82.4907 6.53711C82.8237 6.67839 83.1366 6.84489 83.4292 7.03662C83.7218 7.21826 84.0246 7.38477 84.3374 7.53613C84.6502 7.67741 85.0085 7.74805 85.4121 7.74805C85.8359 7.74805 86.1942 7.58659 86.4868 7.26367C86.7795 6.93066 86.9258 6.52702 86.9258 6.05273ZM92.8896 20.9927V20.6445C92.8896 19.4639 93.0612 18.369 93.4043 17.3599C93.7474 16.3407 94.2419 15.4577 94.8877 14.7109C95.5335 13.9541 96.3156 13.3688 97.2339 12.9551C98.1522 12.5312 99.1815 12.3193 100.322 12.3193C101.472 12.3193 102.507 12.5312 103.425 12.9551C104.353 13.3688 105.14 13.9541 105.786 14.7109C106.442 15.4577 106.942 16.3407 107.285 17.3599C107.628 18.369 107.799 19.4639 107.799 20.6445V20.9927C107.799 22.1733 107.628 23.2682 107.285 24.2773C106.942 25.2865 106.442 26.1694 105.786 26.9263C105.14 27.673 104.358 28.2583 103.44 28.6821C102.532 29.0959 101.502 29.3027 100.352 29.3027C99.2017 29.3027 98.1673 29.0959 97.249 28.6821C96.3307 28.2583 95.5436 27.673 94.8877 26.9263C94.2419 26.1694 93.7474 25.2865 93.4043 24.2773C93.0612 23.2682 92.8896 22.1733 92.8896 20.9927ZM95.6899 20.6445V20.9927C95.6899 21.8101 95.7858 22.582 95.9775 23.3086C96.1693 24.0251 96.4569 24.6608 96.8403 25.2158C97.2339 25.7708 97.7233 26.2098 98.3086 26.5327C98.8939 26.8455 99.575 27.002 100.352 27.002C101.119 27.002 101.79 26.8455 102.365 26.5327C102.951 26.2098 103.435 25.7708 103.818 25.2158C104.202 24.6608 104.489 24.0251 104.681 23.3086C104.883 22.582 104.984 21.8101 104.984 20.9927V20.6445C104.984 19.8372 104.883 19.0754 104.681 18.3589C104.489 17.6323 104.197 16.9915 103.803 16.4365C103.42 15.8714 102.935 15.4274 102.35 15.1045C101.775 14.7816 101.099 14.6201 100.322 14.6201C99.5549 14.6201 98.8787 14.7816 98.2935 15.1045C97.7183 15.4274 97.2339 15.8714 96.8403 16.4365C96.4569 16.9915 96.1693 17.6323 95.9775 18.3589C95.7858 19.0754 95.6899 19.8372 95.6899 20.6445ZM135.711 18.0259V26.0938C135.439 26.4974 135.005 26.9515 134.41 27.4561C133.814 27.9505 132.992 28.3844 131.942 28.7578C130.903 29.1211 129.561 29.3027 127.916 29.3027C126.574 29.3027 125.338 29.0706 124.208 28.6064C123.087 28.1322 122.114 27.446 121.286 26.5479C120.469 25.6396 119.833 24.5397 119.379 23.248C118.935 21.9463 118.713 20.473 118.713 18.8281V17.1177C118.713 15.4728 118.905 14.0046 119.288 12.7129C119.682 11.4212 120.257 10.3263 121.014 9.42822C121.771 8.52002 122.699 7.83382 123.799 7.36963C124.899 6.89535 126.16 6.6582 127.583 6.6582C129.268 6.6582 130.676 6.95085 131.806 7.53613C132.946 8.11133 133.834 8.90853 134.47 9.92773C135.116 10.9469 135.53 12.1074 135.711 13.4092H132.79C132.659 12.612 132.396 11.8854 132.003 11.2295C131.619 10.5736 131.069 10.0488 130.353 9.65527C129.637 9.25163 128.713 9.0498 127.583 9.0498C126.564 9.0498 125.681 9.23649 124.934 9.60986C124.187 9.98324 123.572 10.5181 123.087 11.2144C122.603 11.9106 122.24 12.7533 121.998 13.7422C121.765 14.7311 121.649 15.8462 121.649 17.0874V18.8281C121.649 20.0996 121.796 21.2349 122.088 22.2339C122.391 23.2329 122.82 24.0856 123.375 24.792C123.93 25.4883 124.591 26.0181 125.358 26.3813C126.135 26.7446 126.993 26.9263 127.931 26.9263C128.971 26.9263 129.813 26.8405 130.459 26.6689C131.105 26.4873 131.609 26.2754 131.973 26.0332C132.336 25.7809 132.613 25.5438 132.805 25.3218V20.3872H127.704V18.0259H135.711ZM146.928 29.3027C145.787 29.3027 144.753 29.111 143.825 28.7275C142.906 28.334 142.114 27.784 141.448 27.0776C140.792 26.3713 140.288 25.5337 139.935 24.5649C139.581 23.5962 139.405 22.5366 139.405 21.3862V20.7505C139.405 19.4185 139.602 18.2327 139.995 17.1934C140.389 16.1439 140.924 15.2559 141.6 14.5293C142.276 13.8027 143.043 13.2528 143.9 12.8794C144.758 12.506 145.646 12.3193 146.564 12.3193C147.735 12.3193 148.744 12.5212 149.592 12.9248C150.45 13.3285 151.151 13.8936 151.696 14.6201C152.241 15.3366 152.644 16.1842 152.907 17.1631C153.169 18.1318 153.3 19.1914 153.3 20.3418V21.5981H141.07V19.3125H150.5V19.1006C150.46 18.374 150.308 17.6676 150.046 16.9814C149.794 16.2952 149.39 15.7301 148.835 15.2861C148.28 14.8421 147.523 14.6201 146.564 14.6201C145.929 14.6201 145.343 14.7563 144.809 15.0288C144.274 15.2912 143.815 15.6847 143.431 16.2095C143.048 16.7342 142.75 17.375 142.538 18.1318C142.326 18.8887 142.22 19.7616 142.22 20.7505V21.3862C142.22 22.1632 142.326 22.8949 142.538 23.5811C142.76 24.2572 143.078 24.8525 143.492 25.3672C143.916 25.8818 144.425 26.2855 145.021 26.5781C145.626 26.8708 146.312 27.0171 147.079 27.0171C148.068 27.0171 148.906 26.8153 149.592 26.4116C150.278 26.008 150.878 25.4681 151.393 24.792L153.088 26.1392C152.735 26.674 152.286 27.1836 151.741 27.668C151.196 28.1523 150.525 28.5459 149.728 28.8486C148.941 29.1514 148.007 29.3027 146.928 29.3027ZM159.37 15.1953V29H156.57V12.6221H159.294L159.37 15.1953ZM164.486 12.5312L164.471 15.1348C164.239 15.0843 164.017 15.054 163.805 15.0439C163.603 15.0238 163.371 15.0137 163.109 15.0137C162.463 15.0137 161.893 15.1146 161.398 15.3164C160.904 15.5182 160.485 15.8008 160.142 16.1641C159.799 16.5273 159.527 16.9613 159.325 17.4658C159.133 17.9603 159.007 18.5052 158.946 19.1006L158.159 19.5547C158.159 18.5658 158.255 17.6374 158.447 16.7695C158.649 15.9017 158.956 15.1348 159.37 14.4688C159.784 13.7926 160.309 13.2679 160.944 12.8945C161.59 12.5111 162.357 12.3193 163.245 12.3193C163.447 12.3193 163.679 12.3446 163.941 12.395C164.204 12.4354 164.385 12.4808 164.486 12.5312ZM176.126 26.1997V17.7686C176.126 17.1227 175.995 16.5627 175.733 16.0884C175.481 15.604 175.097 15.2306 174.583 14.9683C174.068 14.7059 173.432 14.5747 172.675 14.5747C171.969 14.5747 171.348 14.6958 170.813 14.938C170.289 15.1802 169.875 15.498 169.572 15.8916C169.28 16.2852 169.133 16.709 169.133 17.1631H166.333C166.333 16.5778 166.484 15.9976 166.787 15.4224C167.09 14.8472 167.524 14.3275 168.089 13.8633C168.664 13.389 169.35 13.0156 170.147 12.7432C170.955 12.4606 171.853 12.3193 172.842 12.3193C174.033 12.3193 175.082 12.5212 175.99 12.9248C176.909 13.3285 177.625 13.939 178.14 14.7563C178.664 15.5636 178.927 16.5778 178.927 17.7988V25.4277C178.927 25.9727 178.972 26.5529 179.063 27.1685C179.164 27.784 179.31 28.3138 179.502 28.7578V29H176.581C176.439 28.6771 176.328 28.2482 176.248 27.7134C176.167 27.1685 176.126 26.6639 176.126 26.1997ZM176.611 19.0703L176.641 21.0381H173.811C173.013 21.0381 172.302 21.1037 171.676 21.2349C171.051 21.356 170.526 21.5426 170.102 21.7949C169.678 22.0472 169.355 22.3651 169.133 22.7485C168.911 23.1219 168.8 23.5609 168.8 24.0654C168.8 24.5801 168.916 25.0493 169.148 25.4731C169.381 25.897 169.729 26.235 170.193 26.4873C170.667 26.7295 171.247 26.8506 171.934 26.8506C172.791 26.8506 173.548 26.6689 174.204 26.3057C174.86 25.9424 175.38 25.4984 175.763 24.9736C176.157 24.4489 176.369 23.9393 176.399 23.4448L177.595 24.792C177.524 25.2158 177.332 25.6851 177.02 26.1997C176.707 26.7144 176.288 27.2088 175.763 27.6831C175.249 28.1473 174.633 28.5358 173.917 28.8486C173.21 29.1514 172.413 29.3027 171.525 29.3027C170.415 29.3027 169.441 29.0858 168.604 28.6519C167.776 28.2179 167.13 27.6377 166.666 26.9111C166.212 26.1745 165.985 25.3521 165.985 24.4438C165.985 23.5659 166.156 22.7939 166.5 22.1279C166.843 21.4518 167.337 20.8918 167.983 20.4478C168.629 19.9937 169.406 19.6506 170.314 19.4185C171.222 19.1864 172.236 19.0703 173.356 19.0703H176.611ZM193.655 25.8213V5.75H196.47V29H193.897L193.655 25.8213ZM182.635 20.9927V20.6748C182.635 19.4235 182.787 18.2882 183.089 17.269C183.402 16.2397 183.841 15.3568 184.406 14.6201C184.981 13.8835 185.663 13.3184 186.45 12.9248C187.247 12.5212 188.135 12.3193 189.114 12.3193C190.143 12.3193 191.041 12.501 191.808 12.8643C192.585 13.2174 193.241 13.7371 193.776 14.4233C194.321 15.0994 194.75 15.9168 195.062 16.8755C195.375 17.8341 195.592 18.9189 195.713 20.1299V21.5225C195.602 22.7233 195.385 23.8031 195.062 24.7617C194.75 25.7204 194.321 26.5378 193.776 27.2139C193.241 27.89 192.585 28.4097 191.808 28.7729C191.031 29.1261 190.123 29.3027 189.083 29.3027C188.125 29.3027 187.247 29.0959 186.45 28.6821C185.663 28.2684 184.981 27.6882 184.406 26.9414C183.841 26.1947 183.402 25.3167 183.089 24.3076C182.787 23.2884 182.635 22.1834 182.635 20.9927ZM185.451 20.6748V20.9927C185.451 21.8101 185.531 22.577 185.693 23.2935C185.864 24.0099 186.127 24.6406 186.48 25.1855C186.833 25.7305 187.282 26.1593 187.827 26.4722C188.372 26.7749 189.023 26.9263 189.78 26.9263C190.708 26.9263 191.47 26.7295 192.065 26.3359C192.671 25.9424 193.155 25.4227 193.519 24.7769C193.882 24.131 194.164 23.4297 194.366 22.6729V19.0249C194.245 18.4699 194.069 17.9351 193.836 17.4204C193.614 16.8957 193.322 16.4315 192.958 16.0278C192.605 15.6141 192.166 15.2861 191.642 15.0439C191.127 14.8018 190.516 14.6807 189.81 14.6807C189.043 14.6807 188.382 14.8421 187.827 15.165C187.282 15.4779 186.833 15.9118 186.48 16.4668C186.127 17.0117 185.864 17.6475 185.693 18.374C185.531 19.0905 185.451 19.8574 185.451 20.6748ZM200.088 20.9927V20.6445C200.088 19.4639 200.259 18.369 200.603 17.3599C200.946 16.3407 201.44 15.4577 202.086 14.7109C202.732 13.9541 203.514 13.3688 204.432 12.9551C205.35 12.5312 206.38 12.3193 207.52 12.3193C208.67 12.3193 209.705 12.5312 210.623 12.9551C211.551 13.3688 212.339 13.9541 212.984 14.7109C213.64 15.4577 214.14 16.3407 214.483 17.3599C214.826 18.369 214.998 19.4639 214.998 20.6445V20.9927C214.998 22.1733 214.826 23.2682 214.483 24.2773C214.14 25.2865 213.64 26.1694 212.984 26.9263C212.339 27.673 211.556 28.2583 210.638 28.6821C209.73 29.0959 208.701 29.3027 207.55 29.3027C206.4 29.3027 205.366 29.0959 204.447 28.6821C203.529 28.2583 202.742 27.673 202.086 26.9263C201.44 26.1694 200.946 25.2865 200.603 24.2773C200.259 23.2682 200.088 22.1733 200.088 20.9927ZM202.888 20.6445V20.9927C202.888 21.8101 202.984 22.582 203.176 23.3086C203.368 24.0251 203.655 24.6608 204.039 25.2158C204.432 25.7708 204.922 26.2098 205.507 26.5327C206.092 26.8455 206.773 27.002 207.55 27.002C208.317 27.002 208.988 26.8455 209.563 26.5327C210.149 26.2098 210.633 25.7708 211.017 25.2158C211.4 24.6608 211.688 24.0251 211.879 23.3086C212.081 22.582 212.182 21.8101 212.182 20.9927V20.6445C212.182 19.8372 212.081 19.0754 211.879 18.3589C211.688 17.6323 211.395 16.9915 211.001 16.4365C210.618 15.8714 210.134 15.4274 209.548 15.1045C208.973 14.7816 208.297 14.6201 207.52 14.6201C206.753 14.6201 206.077 14.7816 205.492 15.1045C204.917 15.4274 204.432 15.8714 204.039 16.4365C203.655 16.9915 203.368 17.6323 203.176 18.3589C202.984 19.0754 202.888 19.8372 202.888 20.6445Z" fill="black"/>
</svg>
